<mxfile host="65bd71144e">
    <diagram id="2KKid5IxgHDw7zUUmGR-" name="Page-1">
        <mxGraphModel dx="5089" dy="2952" grid="1" gridSize="10" guides="1" tooltips="1" connect="1" arrows="1" fold="1" page="1" pageScale="1" pageWidth="827" pageHeight="1169" math="0" shadow="0">
            <root>
                <mxCell id="0"/>
                <mxCell id="1" parent="0"/>
                <mxCell id="36" value="&lt;font style=&quot;font-size: 23px&quot;&gt;TK DATASET&lt;/font&gt;" style="rounded=0;whiteSpace=wrap;html=1;verticalAlign=top;fontSize=23;" vertex="1" parent="1">
                    <mxGeometry x="-880" y="-220" width="570" height="930" as="geometry"/>
                </mxCell>
                <mxCell id="3" value="RAW SURVEY" style="rounded=0;whiteSpace=wrap;html=1;verticalAlign=top;fontSize=23;" vertex="1" parent="1">
                    <mxGeometry x="-1600" y="40" width="440" height="720" as="geometry"/>
                </mxCell>
                <mxCell id="5" value="" style="shape=orEllipse;perimeter=ellipsePerimeter;whiteSpace=wrap;html=1;backgroundOutline=1;verticalAlign=top;" vertex="1" parent="1">
                    <mxGeometry x="-1320" y="270" width="80" height="80" as="geometry"/>
                </mxCell>
                <mxCell id="7" value="KOBO" style="shape=cylinder3;whiteSpace=wrap;html=1;boundedLbl=1;backgroundOutline=1;size=15;verticalAlign=middle;fontSize=16;fillColor=#0050ef;strokeColor=#001DBC;fontColor=#ffffff;" vertex="1" parent="1">
                    <mxGeometry x="-1580" y="70" width="110" height="140" as="geometry"/>
                </mxCell>
                <mxCell id="8" value="CSV" style="shape=cylinder3;whiteSpace=wrap;html=1;boundedLbl=1;backgroundOutline=1;size=15;verticalAlign=middle;fontSize=16;fillColor=#0050ef;strokeColor=#001DBC;fontColor=#ffffff;" vertex="1" parent="1">
                    <mxGeometry x="-1580" y="240" width="110" height="140" as="geometry"/>
                </mxCell>
                <mxCell id="9" value="GSHEET" style="shape=cylinder3;whiteSpace=wrap;html=1;boundedLbl=1;backgroundOutline=1;size=15;verticalAlign=middle;fontSize=16;fillColor=#0050ef;strokeColor=#001DBC;fontColor=#ffffff;" vertex="1" parent="1">
                    <mxGeometry x="-1580" y="410" width="110" height="140" as="geometry"/>
                </mxCell>
                <mxCell id="11" value="...?" style="shape=cylinder3;whiteSpace=wrap;html=1;boundedLbl=1;backgroundOutline=1;size=15;verticalAlign=middle;fontSize=16;fillColor=#0050ef;strokeColor=#001DBC;fontColor=#ffffff;" vertex="1" parent="1">
                    <mxGeometry x="-1580" y="580" width="110" height="140" as="geometry"/>
                </mxCell>
                <mxCell id="12" value="" style="edgeStyle=elbowEdgeStyle;elbow=horizontal;endArrow=classic;html=1;fontSize=16;exitX=1;exitY=0.5;exitDx=0;exitDy=0;exitPerimeter=0;entryX=0.5;entryY=0;entryDx=0;entryDy=0;" edge="1" parent="1" source="7" target="5">
                    <mxGeometry width="50" height="50" relative="1" as="geometry">
                        <mxPoint x="-910" y="560" as="sourcePoint"/>
                        <mxPoint x="-860" y="510" as="targetPoint"/>
                        <Array as="points">
                            <mxPoint x="-1280" y="260"/>
                        </Array>
                    </mxGeometry>
                </mxCell>
                <mxCell id="13" value="" style="edgeStyle=elbowEdgeStyle;elbow=horizontal;endArrow=classic;html=1;fontSize=16;exitX=1;exitY=0.5;exitDx=0;exitDy=0;exitPerimeter=0;entryX=0;entryY=0.5;entryDx=0;entryDy=0;" edge="1" parent="1" source="8" target="5">
                    <mxGeometry width="50" height="50" relative="1" as="geometry">
                        <mxPoint x="-910" y="560" as="sourcePoint"/>
                        <mxPoint x="-860" y="510" as="targetPoint"/>
                        <Array as="points">
                            <mxPoint x="-1380" y="330"/>
                        </Array>
                    </mxGeometry>
                </mxCell>
                <mxCell id="14" value="" style="edgeStyle=elbowEdgeStyle;elbow=horizontal;endArrow=classic;html=1;fontSize=16;exitX=1;exitY=0.5;exitDx=0;exitDy=0;exitPerimeter=0;entryX=0.5;entryY=1;entryDx=0;entryDy=0;" edge="1" parent="1" source="9" target="5">
                    <mxGeometry width="50" height="50" relative="1" as="geometry">
                        <mxPoint x="-910" y="560" as="sourcePoint"/>
                        <mxPoint x="-860" y="510" as="targetPoint"/>
                        <Array as="points">
                            <mxPoint x="-1280" y="460"/>
                        </Array>
                    </mxGeometry>
                </mxCell>
                <mxCell id="17" value="&lt;font style=&quot;font-size: 23px;&quot;&gt;FDF&lt;/font&gt;" style="rounded=0;whiteSpace=wrap;html=1;verticalAlign=top;fontSize=23;" vertex="1" parent="1">
                    <mxGeometry x="-1600" y="-400" width="440" height="360" as="geometry"/>
                </mxCell>
                <mxCell id="18" value="EXCEL" style="shape=cylinder3;whiteSpace=wrap;html=1;boundedLbl=1;backgroundOutline=1;size=15;fontSize=20;verticalAlign=middle;fillColor=#0050ef;strokeColor=#001DBC;fontColor=#ffffff;" vertex="1" parent="1">
                    <mxGeometry x="-1570" y="-280" width="90" height="120" as="geometry"/>
                </mxCell>
                <mxCell id="19" value="&lt;ul&gt;&lt;li&gt;CSV&lt;/li&gt;&lt;li&gt;GSHEET&lt;/li&gt;&lt;/ul&gt;" style="rounded=0;whiteSpace=wrap;html=1;verticalAlign=top;fontSize=20;align=left;horizontal=1;" vertex="1" parent="1">
                    <mxGeometry x="-1435" y="-276.5" width="210" height="113" as="geometry"/>
                </mxCell>
                <mxCell id="21" value="" style="endArrow=classic;html=1;fontSize=20;exitX=1;exitY=0.5;exitDx=0;exitDy=0;exitPerimeter=0;entryX=0;entryY=0.5;entryDx=0;entryDy=0;" edge="1" parent="1" source="18" target="19">
                    <mxGeometry width="50" height="50" relative="1" as="geometry">
                        <mxPoint x="-1010" y="-180" as="sourcePoint"/>
                        <mxPoint x="-960" y="-230" as="targetPoint"/>
                    </mxGeometry>
                </mxCell>
                <mxCell id="25" value="TK SURVEY 1" style="rounded=0;whiteSpace=wrap;html=1;verticalAlign=middle;fontSize=23;" vertex="1" parent="1">
                    <mxGeometry x="-810" y="-78.75" width="390" height="157.5" as="geometry"/>
                </mxCell>
                <mxCell id="27" value="" style="shape=sumEllipse;perimeter=ellipsePerimeter;whiteSpace=wrap;html=1;backgroundOutline=1;fontSize=23;align=left;verticalAlign=middle;" vertex="1" parent="1">
                    <mxGeometry x="-1030" y="-40" width="80" height="80" as="geometry"/>
                </mxCell>
                <mxCell id="28" value="" style="edgeStyle=elbowEdgeStyle;elbow=horizontal;endArrow=classic;html=1;fontSize=23;exitX=1;exitY=0.5;exitDx=0;exitDy=0;entryX=0.5;entryY=0;entryDx=0;entryDy=0;" edge="1" parent="1" source="19" target="27">
                    <mxGeometry width="50" height="50" relative="1" as="geometry">
                        <mxPoint x="-470" y="280" as="sourcePoint"/>
                        <mxPoint x="-420" y="230" as="targetPoint"/>
                        <Array as="points">
                            <mxPoint x="-990" y="-130"/>
                        </Array>
                    </mxGeometry>
                </mxCell>
                <mxCell id="29" value="" style="edgeStyle=elbowEdgeStyle;elbow=horizontal;endArrow=classic;html=1;fontSize=23;exitX=1;exitY=0.5;exitDx=0;exitDy=0;entryX=0.5;entryY=1;entryDx=0;entryDy=0;" edge="1" parent="1" source="5" target="27">
                    <mxGeometry width="50" height="50" relative="1" as="geometry">
                        <mxPoint x="-1180" y="-210" as="sourcePoint"/>
                        <mxPoint x="-810" y="-30" as="targetPoint"/>
                        <Array as="points">
                            <mxPoint x="-990" y="210"/>
                        </Array>
                    </mxGeometry>
                </mxCell>
                <mxCell id="31" value="" style="edgeStyle=elbowEdgeStyle;elbow=horizontal;endArrow=classic;html=1;fontSize=23;exitX=1;exitY=0.5;exitDx=0;exitDy=0;entryX=0;entryY=0.5;entryDx=0;entryDy=0;" edge="1" parent="1" source="27" target="25">
                    <mxGeometry width="50" height="50" relative="1" as="geometry">
                        <mxPoint x="-650" y="280" as="sourcePoint"/>
                        <mxPoint x="-600" y="230" as="targetPoint"/>
                    </mxGeometry>
                </mxCell>
                <mxCell id="33" value="TK SURVEY 2" style="rounded=0;whiteSpace=wrap;html=1;verticalAlign=middle;fontSize=23;" vertex="1" parent="1">
                    <mxGeometry x="-810" y="110" width="390" height="157.5" as="geometry"/>
                </mxCell>
                <mxCell id="34" value="..." style="rounded=0;whiteSpace=wrap;html=1;verticalAlign=middle;fontSize=23;" vertex="1" parent="1">
                    <mxGeometry x="-810" y="290" width="390" height="157.5" as="geometry"/>
                </mxCell>
                <mxCell id="35" value="&lt;span&gt;...&lt;/span&gt;" style="rounded=0;whiteSpace=wrap;html=1;verticalAlign=middle;fontSize=23;" vertex="1" parent="1">
                    <mxGeometry x="-810" y="480" width="390" height="157.5" as="geometry"/>
                </mxCell>
            </root>
        </mxGraphModel>
    </diagram>
</mxfile>